<svg fill="none" height="51" viewBox="0 0 300 51" width="300" xmlns="http://www.w3.org/2000/svg"><g fill="#171412" opacity=".65"><path d="m6.72939 18.9878v-18.667782h-.56656l-5.561579 16.240982v-16.240982h-.601251v18.667782h.450939l5.677201-16.58766v16.58766z"/><path d="m9.13485 18.9878h.57813v-16.2143l3.20282 10.7473h.0463l3.2028-10.7473v16.2143h.6012v-18.667782h-.5665l-3.2491 11.040682-3.24908-11.040682h-.56657z"/><path d="m19.173 18.9878h5.816v-1.2801h-5.2147v-7.4938h4.6366v-1.28003h-4.6366v-7.33377h5.1569v-1.280082h-5.7582z"/><path d="m26.919 18.9878h.6013v-8.7472h2.0119c.0925 4.7736 1.6303 9.0672 3.9081 9.0672 2.3587 0 3.9313-4.6669 3.9313-9.65389v-.05333c0-4.98697-1.5379-9.60058-3.9082-9.60058-2.2547 0-3.7925 4.24025-3.9197 8.96054h-2.0234v-8.640522h-.6013zm6.5444-.9334c-1.9078 0-3.3069-3.8935-3.3069-8.40049v-.05333c0-4.50694 1.3644-8.34717 3.2838-8.34717 1.9078 0 3.3069 3.89357 3.3069 8.4005v.05334c0 4.50695-1.3644 8.34715-3.2838 8.34715z"/><path d="m41.0282 18.9878h.6013v-17.3877h2.8212v-1.280082h-6.2438v1.280082h2.8213z"/><path d="m49.3057 19.3078c1.4338 0 2.3472-1.3334 3.2144-3.2535l-.4047-.9067c-.8209 1.8934-1.6187 2.9068-2.7866 2.9068-1.9309 0-3.4225-3.7069-3.4225-8.40049v-.05333c0-4.69362 1.4685-8.34717 3.411-8.34717 1.214 0 2.0234 1.1734 2.7287 2.74683l.4278-1.01339c-.8325-1.78678-1.7112-2.98685-3.145-2.98685-2.3356 0-4.0469 4.3736-4.0469 9.65391v.05334c0 5.36035 1.6997 9.60055 4.0238 9.60055z"/><path d="m60.188.320018h-3.3532c-1.8153 0-2.9369 2.213462-2.9369 5.306982v.05334c0 3.17352 1.0407 5.12026 2.4397 5.46696l-2.7403 7.8405h.7631l2.671-7.7338h2.5553v7.7338h.6013zm-.6013 1.280082v8.4005h-2.59c-1.4222 0-2.4975-1.38675-2.4975-4.26692v-.05334c0-2.45348.8441-4.08024 2.3125-4.08024z"/><path d="m66.0555 18.9878h.6012v-17.3877h5.18v17.3877h.6013v-18.667782h-6.3825z"/><path d="m74.8403 18.9878h.6012v-6.9604h2.1854c1.6997 0 3.1565-2.0001 3.1565-5.94704v-.05333c0-3.60022-1.2256-5.707012-3.0062-5.707012h-2.9369zm.6012-8.2405v-9.1472h2.2894c1.4453 0 2.4513 1.54675 2.4513 4.50693v.05334c0 2.80017-1.0175 4.58693-2.5207 4.58693z"/><path d="m86.2637 19.3078c2.4513 0 4.0816-4.5336 4.0816-9.65389v-.05333c0-5.09364-1.6072-9.60058-4.0585-9.60058-2.4512 0-4.0815 4.53361-4.0815 9.65391v.05334c0 5.09365 1.6072 9.60055 4.0584 9.60055zm.0231-1.2534c-2.0003 0-3.4572-3.7869-3.4572-8.40049v-.05333c0-4.61361 1.4338-8.34717 3.4341-8.34717s3.4572 3.78689 3.4572 8.4005v.05334c0 4.61365-1.4337 8.34715-3.4341 8.34715z"/><path d="m93.9968 18.9878h.6012v-17.3877h2.8213v-1.280082h-6.2438v1.280082h2.8213z"/><path d="m105.914 18.9878v-18.667782h-.566l-5.5619 16.240982v-16.240982h-.6013v18.667782h.451l5.6772-16.58766v16.58766z"/><path d="m108.32 18.9878h3.515c1.746 0 2.902-1.9734 2.902-5.0936v-.0534c0-2.5601-.856-3.86687-1.827-4.45357.659-.64004 1.376-1.86678 1.376-4.42693v-.05334c0-1.14674-.173-2.13346-.52-2.93351-.451-1.040062-1.18-1.653432-2.105-1.653432h-3.341zm5.353-13.89416c0 2.48015-.879 3.84023-2.081 3.84023h-2.671v-7.33377h2.729c1.306 0 2.023 1.38675 2.023 3.4402zm.451 8.80056c0 2.3468-.879 3.8135-2.266 3.8135h-2.937v-7.4938h2.74c1.607 0 2.463 1.3068 2.463 3.6269z"/><path d="m120.308 19.3078c2.451 0 4.081-4.5336 4.081-9.65389v-.05333c0-5.09364-1.607-9.60058-4.058-9.60058s-4.082 4.53361-4.082 9.65391v.05334c0 5.09365 1.607 9.60055 4.059 9.60055zm.023-1.2534c-2.001 0-3.457-3.7869-3.457-8.40049v-.05333c0-4.61361 1.433-8.34717 3.434-8.34717 2 0 3.457 3.78689 3.457 8.4005v.05334c0 4.61365-1.434 8.34715-3.434 8.34715z"/><path d="m126.431 18.9878h.602v-17.3877h5.18v17.3877h.601v-18.667782h-6.383z"/><path d="m138.916 19.3078c2.451 0 4.082-4.5336 4.082-9.65389v-.05333c0-5.09364-1.607-9.60058-4.059-9.60058-2.451 0-4.081 4.53361-4.081 9.65391v.05334c0 5.09365 1.607 9.60055 4.058 9.60055zm.023-1.2534c-2 0-3.457-3.7869-3.457-8.40049v-.05333c0-4.61361 1.434-8.34717 3.434-8.34717s3.457 3.78689 3.457 8.4005v.05334c0 4.61365-1.433 8.34715-3.434 8.34715z"/><path d="m145.04 18.9878h.601v-8.9605h1.619l3.7 8.9605h.832l-4.023-9.68057 3.861-8.987212h-.809l-3.584 8.427172h-1.596v-8.427172h-.601z"/><path d="m152.386 18.9878h.624l1.029-5.227h4.775l1.029 5.227h.659l-3.769-18.801123h-.578zm1.907-6.4804 2.139-10.80063 2.128 10.80063z"/><path d="m161.994 3.70689c.683-1.36008 1.55-2.48015 2.764-2.48015 1.353 0 2.22 1.57343 2.22 3.76023v.05333c0 2.64016-1.064 3.92024-2.417 3.92024h-1.352v1.25336h1.352c1.608 0 2.59 1.3068 2.59 3.7869v.0534c0 2.2668-1.006 4.0269-2.497 4.0269-1.214 0-2.07-.9601-2.775-2.3202l-.359 1.0134c.752 1.4668 1.746 2.5335 3.134 2.5335 1.896 0 3.122-2.2934 3.122-5.2803v-.0533c0-2.2402-.752-3.9203-1.896-4.45363 1.156-.66671 1.722-2.48015 1.722-4.5336v-.05334c0-2.90684-1.202-4.93363-2.832-4.93363-1.48 0-2.463 1.41342-3.145 2.7735z"/><path d="m168.928 18.9878h.624l1.029-5.227h4.775l1.03 5.227h.659l-3.77-18.801123h-.578zm1.908-6.4804 2.139-10.80063 2.127 10.80063z"/><path d="m178.756 18.9878h.602v-8.7472h5.18v8.7472h.601v-18.667782h-.601v8.640522h-5.18v-8.640522h-.602z"/><path d="m194.271 18.9878v-18.667782h-.567l-5.562 16.240982v-16.240982h-.601v18.667782h.451l5.677-16.58766v16.58766z"/><path d="m202.631.320018h-3.353c-1.816 0-2.937 2.213462-2.937 5.306982v.05334c0 3.17352 1.04 5.12026 2.439 5.46696l-2.74 7.8405h.763l2.671-7.7338h2.555v7.7338h.602zm-.602 1.280082v8.4005h-2.59c-1.422 0-2.497-1.38675-2.497-4.26692v-.05334c0-2.45348.844-4.08024 2.312-4.08024z"/><path d="m204.581 21.8413c.694-.6134.959-1.4667.959-3.1468v-1.9735h-.763v2.2668h.313c.034 1.0401-.151 1.5734-.648 2.1868z"/><path d="m211.163 18.9878h.601v-8.7472h5.18v8.7472h.602v-18.667782h-.602v8.640522h-5.18v-8.640522h-.601z"/><path d="m219.948 18.9878h5.816v-1.2801h-5.215v-7.4938h4.637v-1.28003h-4.637v-7.33377h5.157v-1.280082h-5.758z"/><path d="m231.394 19.3078c2.451 0 4.081-4.5336 4.081-9.65389v-.05333c0-5.09364-1.607-9.60058-4.058-9.60058s-4.082 4.53361-4.082 9.65391v.05334c0 5.09365 1.608 9.60055 4.059 9.60055zm.023-1.2534c-2 0-3.457-3.7869-3.457-8.40049v-.05333c0-4.61361 1.433-8.34717 3.434-8.34717 2 0 3.457 3.78689 3.457 8.4005v.05334c0 4.61365-1.434 8.34715-3.434 8.34715z"/><path d="m237.517 18.9878h3.18c1.619 0 3.11-1.6001 3.11-5.3603v-.0534c0-3.4402-1.248-5.06692-2.96-5.06692h-2.728v-6.90708h5.018v-1.280082h-5.62zm.602-1.2801v-7.92045h2.682c1.388 0 2.405 1.06675 2.405 3.86695v.0533c0 2.6401-1.04 4.0002-2.474 4.0002z"/><path d="m251.055.320018-2.752 8.240492-2.763-8.240492h-.717l3.098 9.147212-3.214 9.52057h.705l2.868-8.6138 2.879 8.6138h.717l-3.226-9.52057 3.11-9.147212z"/><path d="m256.788 19.3078c2.452 0 4.082-4.5336 4.082-9.65389v-.05333c0-5.09364-1.607-9.60058-4.058-9.60058-2.452 0-4.082 4.53361-4.082 9.65391v.05334c0 5.09365 1.607 9.60055 4.058 9.60055zm.024-1.2534c-2.001 0-3.458-3.7869-3.458-8.40049v-.05333c0-4.61361 1.434-8.34717 3.434-8.34717 2.001 0 3.458 3.78689 3.458 8.4005v.05334c0 4.61365-1.434 8.34715-3.434 8.34715z"/><path d="m261.596 17.7077v5.227h.59v-3.9469h7.712v3.9469h.59v-5.227h-.752l-3.388-17.521023h-.612l-3.4 17.521023zm4.44-15.89426 3.041 15.89426h-6.105z"/><path d="m278.878 18.9878v-18.667782h-.567l-5.561 16.240982v-16.240982h-.601v18.667782h.451l5.677-16.58766v16.58766z"/><path d="m281.283 18.9878h.579v-16.2143l3.202 10.7473h.047l3.202-10.7473v16.2143h.602v-18.667782h-.567l-3.249 11.040682-3.249-11.040682h-.567z"/><path d="m295.022 19.3078c2.451 0 4.081-4.5336 4.081-9.65389v-.05333c0-5.09364-1.607-9.60058-4.058-9.60058-2.452 0-4.082 4.53361-4.082 9.65391v.05334c0 5.09365 1.607 9.60055 4.059 9.60055zm.023-1.2534c-2.001 0-3.457-3.7869-3.457-8.40049v-.05333c0-4.61361 1.433-8.34717 3.434-8.34717 2 0 3.457 3.78689 3.457 8.4005v.05334c0 4.61365-1.434 8.34715-3.434 8.34715z"/><path d="m0 47.0531h.601252v-17.3877h5.180018v17.3877h.60125v-18.6678h-6.38252z"/><path d="m8.78481 47.0531h.60125v-6.9604h2.18534c1.6997 0 3.1566-2.0001 3.1566-5.947v-.0534c0-3.6002-1.2256-5.707-3.0063-5.707h-2.93689zm.60125-8.2405v-9.1472h2.28934c1.4454 0 2.4513 1.5467 2.4513 4.5069v.0534c0 2.8001-1.0175 4.5869-2.5206 4.5869z"/><path d="m20.2083 47.3731c2.4512 0 4.0815-4.5336 4.0815-9.6539v-.0533c0-5.0937-1.6072-9.6006-4.0584-9.6006-2.4513 0-4.0816 4.5336-4.0816 9.6539v.0533c0 5.0937 1.6072 9.6006 4.0585 9.6006zm.0231-1.2534c-2.0004 0-3.4572-3.7869-3.4572-8.4005v-.0533c0-4.6136 1.4337-8.3472 3.4341-8.3472 2.0003 0 3.4571 3.7869 3.4571 8.4005v.0533c0 4.6136-1.4337 8.3472-3.434 8.3472z"/><path d="m26.3319 47.0531h.6012v-8.9605h1.6188l3.7 8.9605h.8325l-4.0238-9.6806 3.8619-8.9872h-.8094l-3.5844 8.4272h-1.5956v-8.4272h-.6012z"/><path d="m37.7779 47.3731c2.4512 0 4.0816-4.5336 4.0816-9.6539v-.0533c0-5.0937-1.6072-9.6006-4.0585-9.6006-2.4512 0-4.0816 4.5336-4.0816 9.6539v.0533c0 5.0937 1.6072 9.6006 4.0585 9.6006zm.0231-1.2534c-2.0003 0-3.4572-3.7869-3.4572-8.4005v-.0533c0-4.6136 1.4338-8.3472 3.4341-8.3472s3.4572 3.7869 3.4572 8.4005v.0533c0 4.6136-1.4338 8.3472-3.4341 8.3472z"/><path d="m43.9015 47.0531h.6012v-8.7472h5.1801v8.7472h.6012v-18.6678h-.6012v8.6405h-5.1801v-8.6405h-.6012z"/><path d="m56.3516 47.3731c1.4338 0 2.3472-1.3334 3.2144-3.2535l-.4047-.9067c-.8209 1.8934-1.6187 2.9068-2.7865 2.9068-1.931 0-3.4225-3.7069-3.4225-8.4005v-.0533c0-4.6937 1.4684-8.3472 3.4109-8.3472 1.214 0 2.0235 1.1734 2.7288 2.7468l.4278-1.0134c-.8325-1.7867-1.7113-2.9868-3.145-2.9868-2.3357 0-4.0469 4.3736-4.0469 9.6539v.0533c0 5.3604 1.6997 9.6006 4.0237 9.6006z"/><path d="m62.8326 47.0531 4.8679-18.6678h-.6823l-2.8097 11.014-3.1681-11.014h-.7053l3.5497 12.1874-1.7228 6.4804z"/><path d="m71.2193 28.252h-.5434l-3.6769 18.8011h.636l3.3068-17.0944 3.2954 17.0944h.6706z"/><path d="m76.6244 47.0531h2.7865c1.665 0 3.1566-1.9735 3.1566-5.8937v-.0533c0-3.5469-1.2372-5.6537-3.0062-5.6537h-2.3357v-7.0671h-.6012zm.6012-1.2801v-9.0405h2.2894c1.4453 0 2.4513 1.5201 2.4513 4.4536v.0533c0 2.7468-1.0291 4.5336-2.5207 4.5336z"/><path d="m85.5507 47.0531h.6013v-17.3877h2.8213v-1.2801h-6.2438v1.2801h2.8212z"/><path d="m97.4682 47.0531v-18.6678h-.5666l-5.5616 16.241v-16.241h-.6012v18.6678h.4509l5.6772-16.5877v16.5877z"/><path d="m99.8736 47.0531h.6014v-6.9604h2.185c1.7 0 3.157-2.0001 3.157-5.947v-.0534c0-3.6002-1.226-5.707-3.006-5.707h-2.9374zm.6014-8.2405v-9.1472h2.289c1.446 0 2.452 1.5467 2.452 4.5069v.0534c0 2.8001-1.018 4.5869-2.521 4.5869z"/><path d="m111.297 47.3731c2.451 0 4.082-4.5336 4.082-9.6539v-.0533c0-5.0937-1.608-9.6006-4.059-9.6006s-4.081 4.5336-4.081 9.6539v.0533c0 5.0937 1.607 9.6006 4.058 9.6006zm.023-1.2534c-2 0-3.457-3.7869-3.457-8.4005v-.0533c0-4.6136 1.434-8.3472 3.434-8.3472s3.457 3.7869 3.457 8.4005v.0533c0 4.6136-1.433 8.3472-3.434 8.3472z"/><path d="m117.421 47.0531h3.515c1.746 0 2.902-1.9735 2.902-5.0936v-.0534c0-2.5601-.856-3.8669-1.827-4.4536.659-.64 1.376-1.8668 1.376-4.4269v-.0533c0-1.1468-.174-2.1335-.52-2.9336-.451-1.04-1.18-1.6534-2.105-1.6534h-3.341zm5.353-13.8942c0 2.4802-.879 3.8403-2.081 3.8403h-2.671v-7.3338h2.729c1.306 0 2.023 1.3867 2.023 3.4402zm.451 8.8006c0 2.3468-.879 3.8135-2.266 3.8135h-2.937v-7.4938h2.74c1.607 0 2.463 1.3068 2.463 3.6269z"/><path d="m124.902 47.0531h.624l1.029-5.227h4.776l1.029 5.227h.659l-3.769-18.8011h-.579zm1.908-6.4804 2.139-10.8006 2.127 10.8006z"/><path d="m135.934 47.0531h.601v-17.3877h2.821v-1.2801h-6.244v1.2801h2.822z"/><path d="m141.122 47.0531h2.786c1.665 0 3.157-1.9735 3.157-5.8937v-.0533c0-3.5469-1.237-5.6537-3.006-5.6537h-2.336v-7.0671h-.601zm.601-1.2801v-9.0405h2.289c1.446 0 2.452 1.5201 2.452 4.4536v.0533c0 2.7468-1.03 4.5336-2.521 4.5336z"/><path d="m152.51 47.3731c1.434 0 2.348-1.3334 3.215-3.2535l-.405-.9067c-.821 1.8934-1.619 2.9068-2.787 2.9068-1.93 0-3.422-3.7069-3.422-8.4005v-.0533c0-4.6937 1.468-8.3472 3.411-8.3472 1.214 0 2.023 1.1734 2.729 2.7468l.427-1.0134c-.832-1.7867-1.711-2.9868-3.145-2.9868-2.335 0-4.046 4.3736-4.046 9.6539v.0533c0 5.3604 1.699 9.6006 4.023 9.6006z"/><path d="m163.393 28.3853h-3.354c-1.815 0-2.936 2.2135-2.936 5.307v.0533c0 3.1736 1.04 5.1203 2.439 5.467l-2.74 7.8405h.763l2.671-7.7338h2.555v7.7338h.602zm-.602 1.2801v8.4005h-2.59c-1.422 0-2.497-1.3868-2.497-4.2669v-.0534c0-2.4534.844-4.0802 2.312-4.0802z"/><path d="m172.925 47.3731c1.434 0 2.348-1.3334 3.215-3.2535l-.405-.9067c-.821 1.8934-1.619 2.9068-2.786 2.9068-1.931 0-3.423-3.7069-3.423-8.4005v-.0533c0-4.6937 1.468-8.3472 3.411-8.3472 1.214 0 2.023 1.1734 2.729 2.7468l.428-1.0134c-.833-1.7867-1.712-2.9868-3.145-2.9868-2.336 0-4.047 4.3736-4.047 9.6539v.0533c0 5.3604 1.699 9.6006 4.023 9.6006z"/><path d="m181.327 47.3731c2.451 0 4.082-4.5336 4.082-9.6539v-.0533c0-5.0937-1.607-9.6006-4.059-9.6006-2.451 0-4.081 4.5336-4.081 9.6539v.0533c0 5.0937 1.607 9.6006 4.058 9.6006zm.023-1.2534c-2 0-3.457-3.7869-3.457-8.4005v-.0533c0-4.6136 1.434-8.3472 3.434-8.3472s3.457 3.7869 3.457 8.4005v.0533c0 4.6136-1.433 8.3472-3.434 8.3472z"/><path d="m194.583 47.3731c1.433 0 2.347-1.3334 3.214-3.2535l-.405-.9067c-.821 1.8934-1.618 2.9068-2.786 2.9068-1.931 0-3.423-3.7069-3.423-8.4005v-.0533c0-4.6937 1.469-8.3472 3.411-8.3472 1.214 0 2.024 1.1734 2.729 2.7468l.428-1.0134c-.833-1.7867-1.711-2.9868-3.145-2.9868-2.336 0-4.047 4.3736-4.047 9.6539v.0533c0 5.3604 1.7 9.6006 4.024 9.6006z"/><path d="m199.51 47.0531h.601v-17.3877h5.18v17.3877h.602v-18.6678h-6.383z"/><path d="m208.295 47.0531h5.816v-1.2801h-5.215v-7.4938h4.637v-1.28h-4.637v-7.3338h5.157v-1.2801h-5.758z"/><path d="m222.585 51h.59v-5.227h-.752v-17.3877h-.601v17.3877h-5.18v-17.3877h-.601v18.6678h6.544z"/><path d="m231.645 47.0531v-18.6678h-.566l-5.562 16.241v-16.241h-.601v18.6678h.451l5.677-16.5877v16.5877z"/><path d="m233.357 47.0531h.625l1.029-5.227h4.775l1.029 5.227h.659l-3.769-18.8011h-.578zm1.908-6.4804 2.139-10.8006 2.128 10.8006z"/><path d="m246.487 28.252h-.544l-3.677 18.8011h.636l3.307-17.0944 3.295 17.0944h.671z"/><path d="m258.621 47.0531v-18.6678h-.567l-5.561 16.241v-16.241h-.601v18.6678h.451l5.677-16.5877v16.5877z"/><path d="m264.692 47.3731c1.434 0 2.347-1.3334 3.214-3.2535l-.405-.9067c-.82 1.8934-1.618 2.9068-2.786 2.9068-1.931 0-3.423-3.7069-3.423-8.4005v-.0533c0-4.6937 1.469-8.3472 3.411-8.3472 1.214 0 2.024 1.1734 2.729 2.7468l.428-1.0134c-.833-1.7867-1.711-2.9868-3.145-2.9868-2.336 0-4.047 4.3736-4.047 9.6539v.0533c0 5.3604 1.7 9.6006 4.024 9.6006z"/><path d="m271.805 47.0531h.601v-17.3877h2.821v-1.2801h-6.244v1.2801h2.822z"/><path d="m280.117 47.3731c2.451 0 4.081-4.5336 4.081-9.6539v-.0533c0-5.0937-1.607-9.6006-4.058-9.6006s-4.082 4.5336-4.082 9.6539v.0533c0 5.0937 1.608 9.6006 4.059 9.6006zm.023-1.2534c-2 0-3.457-3.7869-3.457-8.4005v-.0533c0-4.6136 1.434-8.3472 3.434-8.3472s3.457 3.7869 3.457 8.4005v.0533c0 4.6136-1.434 8.3472-3.434 8.3472z"/><path d="m286.24 47.0531h.579v-16.2143l3.202 10.7473h.047l3.202-10.7473v16.2143h.602v-18.6678h-.567l-3.249 11.0407-3.249-11.0407h-.567z"/><path d="m296.024 47.0531h.763v-2.2668h-.763z"/></g></svg>