<svg fill="none" height="46" viewBox="0 0 1190 46" width="1190" xmlns="http://www.w3.org/2000/svg"><g fill="#171412" opacity=".65"><path d="m13.3156 38.0837v-37.441841h-1.1211l-11.00479 32.574441v-32.574441h-1.18971v37.441841h.892281l11.233619-33.26975v33.26975z"/><path d="m18.0753 38.0837h1.144v-32.52091l6.3374 21.55581h.0916l6.3374-21.55581v32.52091h1.1897v-37.441841h-1.121l-6.429 22.144141-6.429-22.144141h-1.1211z"/><path d="m37.938 38.0837h11.5082v-2.5674h-10.3185v-15.0303h9.1745v-2.5674h-9.1745v-14.7093h10.2041v-2.567441h-11.3938z"/><path d="m53.2652 38.0837h1.1897v-17.5442h3.9809c.1831 9.5745 3.226 18.1861 7.7331 18.1861 4.6674 0 7.7789-9.3605 7.7789-19.3628v-.107c0-10.00231-3.0429-19.2558-7.7331-19.2558-4.4614 0-7.5043 8.50465-7.756 17.9721h-4.0038v-17.330241h-1.1897zm12.9495-1.8721c-3.775 0-6.5434-7.8093-6.5434-16.8488v-.107c0-9.0395 2.6997-16.74185 6.4976-16.74185 3.7751 0 6.5434 7.80935 6.5434 16.84885v.107c0 9.0395-2.6997 16.7418-6.4976 16.7418z"/><path d="m81.1833 38.0837h1.1897v-34.8744h5.5825v-2.567441h-12.3547v2.567441h5.5825z"/><path d="m97.5622 38.7256c2.8368 0 4.6448-2.6744 6.3608-6.5256l-.801-1.8186c-1.625 3.7977-3.2033 5.8302-5.5141 5.8302-3.8208 0-6.7722-7.4349-6.7722-16.8488v-.107c0-9.41394 2.9057-16.74185 6.7493-16.74185 2.4023 0 4.004 2.35349 5.399 5.5093l.847-2.03255c-1.647-3.58373-3.386-5.9907-6.2231-5.9907-4.6215 0-8.0076 8.77209-8.0076 19.3628v.107c0 10.7511 3.3632 19.2558 7.9619 19.2558z"/><path d="m119.095.641859h-6.635c-3.592 0-5.811 4.439531-5.811 10.644141v.107c0 6.3651 2.059 10.2698 4.827 10.9651l-5.422 15.7256h1.51l5.285-15.5116h5.056v15.5116h1.19zm-1.19 2.567441v16.8488h-5.125c-2.814 0-4.941-2.7814-4.941-8.5581v-.107c0-4.92091 1.67-8.1837 4.575-8.1837z"/><path d="m130.705 38.0837h1.19v-34.8744h10.25v34.8744h1.189v-37.441841h-12.629z"/><path d="m148.088 38.0837h1.19v-13.9604h4.324c3.363 0 6.246-4.0117 6.246-11.928v-.1069c0-7.22096-2.425-11.446541-5.949-11.446541h-5.811zm1.19-16.5279v-18.3465h4.53c2.86 0 4.85 3.10233 4.85 9.0395v.107c0 5.6163-2.013 9.2-4.988 9.2z"/><path d="m170.692 38.7256c4.85 0 8.076-9.093 8.076-19.3628v-.107c0-10.21627-3.18-19.2558-8.031-19.2558-4.85 0-8.076 9.09302-8.076 19.3628v.107c0 10.2162 3.18 19.2558 8.031 19.2558zm.045-2.514c-3.958 0-6.84-7.5953-6.84-16.8488v-.107c0-9.2535 2.837-16.74185 6.795-16.74185s6.841 7.59535 6.841 16.84885v.107c0 9.2535-2.838 16.7418-6.796 16.7418z"/><path d="m185.993 38.0837h1.19v-34.8744h5.582v-2.567441h-12.354v2.567441h5.582z"/><path d="m209.575 38.0837v-37.441841h-1.122l-11.004 32.574441v-32.574441h-1.19v37.441841h.892l11.234-33.26975v33.26975z"/><path d="m214.334 38.0837h6.955c3.455 0 5.743-3.9581 5.743-10.2163v-.1069c0-5.1349-1.693-7.7559-3.615-8.9326 1.304-1.2837 2.723-3.7442 2.723-8.87906v-.10698c0-2.3-.343-4.27907-1.03-5.88372-.892-2.08605-2.333-3.316281-4.164-3.316281h-6.612zm10.593-27.8674c0 4.9744-1.739 7.7023-4.118 7.7023h-5.285v-14.7093h5.399c2.586 0 4.004 2.7814 4.004 6.9zm.893 17.6511c0 4.707-1.739 7.6489-4.485 7.6489h-5.811v-15.0303h5.422c3.18 0 4.874 2.621 4.874 7.2745z"/><path d="m238.055 38.7256c4.85 0 8.076-9.093 8.076-19.3628v-.107c0-10.21627-3.18-19.2558-8.03-19.2558s-8.076 9.09302-8.076 19.3628v.107c0 10.2162 3.18 19.2558 8.03 19.2558zm.046-2.514c-3.958 0-6.841-7.5953-6.841-16.8488v-.107c0-9.2535 2.837-16.74185 6.795-16.74185s6.841 7.59535 6.841 16.84885v.107c0 9.2535-2.837 16.7418-6.795 16.7418z"/><path d="m250.172 38.0837h1.19v-34.8744h10.25v34.8744h1.189v-37.441841h-12.629z"/><path d="m274.876 38.7256c4.85 0 8.076-9.093 8.076-19.3628v-.107c0-10.21627-3.18-19.2558-8.03-19.2558-4.851 0-8.076 9.09302-8.076 19.3628v.107c0 10.2162 3.18 19.2558 8.03 19.2558zm.046-2.514c-3.958 0-6.841-7.5953-6.841-16.8488v-.107c0-9.2535 2.837-16.74185 6.795-16.74185s6.841 7.59535 6.841 16.84885v.107c0 9.2535-2.837 16.7418-6.795 16.7418z"/><path d="m286.993 38.0837h1.19v-17.9721h3.203l7.321 17.9721h1.647l-7.962-19.4163 7.642-18.025541h-1.602l-7.092 16.902341h-3.157v-16.902341h-1.19z"/><path d="m301.528 38.0837h1.236l2.036-10.4837h9.449l2.036 10.4837h1.304l-7.458-37.709283h-1.144zm3.775-12.9977 4.233-21.66274 4.21 21.66274z"/><path d="m320.542 7.43488c1.35-2.7279 3.065-4.97441 5.468-4.97441 2.677 0 4.392 3.15581 4.392 7.54183v.107c0 5.2953-2.104 7.8628-4.781 7.8628h-2.677v2.5139h2.677c3.18 0 5.125 2.621 5.125 7.5954v.107c0 4.5465-1.991 8.0767-4.942 8.0767-2.402 0-4.096-1.9256-5.491-4.6535l-.709 2.0326c1.487 2.9418 3.454 5.0814 6.2 5.0814 3.752 0 6.177-4.6 6.177-10.5907v-.107c0-4.493-1.487-7.8628-3.752-8.9326 2.288-1.3372 3.409-4.9744 3.409-9.093v-.10695c0-5.83024-2.379-9.89535-5.605-9.89535-2.929 0-4.874 2.83488-6.223 5.56279z"/><path d="m334.26 38.0837h1.236l2.036-10.4837h9.449l2.036 10.4837h1.305l-7.459-37.709283h-1.144zm3.776-12.9977 4.232-21.66274 4.21 21.66274z"/><path d="m353.709 38.0837h1.189v-17.5442h10.25v17.5442h1.19v-37.441841h-1.19v17.330241h-10.25v-17.330241h-1.189z"/><path d="m384.407 38.0837v-37.441841h-1.121l-11.005 32.574441v-32.574441h-1.19v37.441841h.892l11.234-33.26975v33.26975z"/><path d="m400.949.641859h-6.635c-3.592 0-5.811 4.439531-5.811 10.644141v.107c0 6.3651 2.059 10.2698 4.828 10.9651l-5.423 15.7256h1.51l5.285-15.5116h5.056v15.5116h1.19zm-1.19 2.567441v16.8488h-5.124c-2.815 0-4.942-2.7814-4.942-8.5581v-.107c0-4.92091 1.67-8.1837 4.576-8.1837z"/><path d="m404.808 43.807c1.373-1.2303 1.899-2.9419 1.899-6.3117v-3.9581h-1.51v4.5465h.618c.068 2.0861-.298 3.1558-1.282 4.3861z"/><path d="m417.832 38.0837h1.19v-17.5442h10.25v17.5442h1.19v-37.441841h-1.19v17.330241h-10.25v-17.330241h-1.19z"/><path d="m435.215 38.0837h11.508v-2.5674h-10.318v-15.0303h9.174v-2.5674h-9.174v-14.7093h10.204v-2.567441h-11.394z"/><path d="m457.863 38.7256c4.851 0 8.077-9.093 8.077-19.3628v-.107c0-10.21627-3.181-19.2558-8.031-19.2558s-8.076 9.09302-8.076 19.3628v.107c0 10.2162 3.18 19.2558 8.03 19.2558zm.046-2.514c-3.958 0-6.841-7.5953-6.841-16.8488v-.107c0-9.2535 2.837-16.74185 6.795-16.74185s6.841 7.59535 6.841 16.84885v.107c0 9.2535-2.837 16.7418-6.795 16.7418z"/><path d="m469.98 38.0837h6.292c3.203 0 6.155-3.2093 6.155-10.7511v-.107c0-6.9-2.471-10.1628-5.858-10.1628h-5.399v-13.8535h9.93v-2.567441h-11.12zm1.19-2.5674v-15.8861h5.308c2.745 0 4.759 2.1396 4.759 7.7558v.107c0 5.2954-2.059 8.0233-4.896 8.0233z"/><path d="m496.767.641859-5.445 16.527941-5.468-16.527941h-1.419l6.132 18.346541-6.36 19.0953h1.395l5.674-17.2767 5.697 17.2767h1.419l-6.384-19.0953 6.155-18.346541z"/><path d="m508.112 38.7256c4.851 0 8.077-9.093 8.077-19.3628v-.107c0-10.21627-3.181-19.2558-8.031-19.2558s-8.076 9.09302-8.076 19.3628v.107c0 10.2162 3.18 19.2558 8.03 19.2558zm.046-2.514c-3.958 0-6.841-7.5953-6.841-16.8488v-.107c0-9.2535 2.837-16.74185 6.795-16.74185s6.841 7.59535 6.841 16.84885v.107c0 9.2535-2.837 16.7418-6.795 16.7418z"/><path d="m517.625 35.5163v10.4837h1.167v-7.9163h15.261v7.9163h1.166v-10.4837h-1.487l-6.703-35.141883h-1.213l-6.726 35.141883zm8.786-31.87909 6.017 31.87909h-12.08z"/><path d="m551.821 38.0837v-37.441841h-1.121l-11.005 32.574441v-32.574441h-1.189v37.441841h.892l11.234-33.26975v33.26975z"/><path d="m556.581 38.0837h1.144v-32.52091l6.337 21.55581h.092l6.337-21.55581v32.52091h1.19v-37.441841h-1.121l-6.429 22.144141-6.429-22.144141h-1.121z"/><path d="m583.765 38.7256c4.85 0 8.076-9.093 8.076-19.3628v-.107c0-10.21627-3.18-19.2558-8.03-19.2558-4.851 0-8.077 9.09302-8.077 19.3628v.107c0 10.2162 3.181 19.2558 8.031 19.2558zm.046-2.514c-3.958 0-6.841-7.5953-6.841-16.8488v-.107c0-9.2535 2.837-16.74185 6.795-16.74185s6.841 7.59535 6.841 16.84885v.107c0 9.2535-2.837 16.7418-6.795 16.7418z"/><path d="m602.741 38.0837h1.19v-34.8744h10.25v34.8744h1.189v-37.441841h-12.629z"/><path d="m620.124 38.0837h1.189v-13.9604h4.325c3.363 0 6.246-4.0117 6.246-11.928v-.1069c0-7.22096-2.426-11.446541-5.949-11.446541h-5.811zm1.189-16.5279v-18.3465h4.531c2.859 0 4.85 3.10233 4.85 9.0395v.107c0 5.6163-2.013 9.2-4.988 9.2z"/><path d="m642.728 38.7256c4.85 0 8.076-9.093 8.076-19.3628v-.107c0-10.21627-3.18-19.2558-8.031-19.2558-4.85 0-8.076 9.09302-8.076 19.3628v.107c0 10.2162 3.18 19.2558 8.031 19.2558zm.045-2.514c-3.958 0-6.841-7.5953-6.841-16.8488v-.107c0-9.2535 2.837-16.74185 6.796-16.74185 3.958 0 6.84 7.59535 6.84 16.84885v.107c0 9.2535-2.837 16.7418-6.795 16.7418z"/><path d="m654.844 38.0837h1.19v-17.9721h3.203l7.322 17.9721h1.647l-7.962-19.4163 7.642-18.025541h-1.602l-7.093 16.902341h-3.157v-16.902341h-1.19z"/><path d="m677.493 38.7256c4.85 0 8.076-9.093 8.076-19.3628v-.107c0-10.21627-3.18-19.2558-8.03-19.2558-4.851 0-8.077 9.09302-8.077 19.3628v.107c0 10.2162 3.181 19.2558 8.031 19.2558zm.046-2.514c-3.958 0-6.841-7.5953-6.841-16.8488v-.107c0-9.2535 2.837-16.74185 6.795-16.74185s6.841 7.59535 6.841 16.84885v.107c0 9.2535-2.837 16.7418-6.795 16.7418z"/><path d="m689.61 38.0837h1.189v-17.5442h10.25v17.5442h1.19v-37.441841h-1.19v17.330241h-10.25v-17.330241h-1.189z"/><path d="m714.245 38.7256c2.837 0 4.645-2.6744 6.361-6.5256l-.801-1.8186c-1.625 3.7977-3.203 5.8302-5.514 5.8302-3.821 0-6.772-7.4349-6.772-16.8488v-.107c0-9.41394 2.905-16.74185 6.749-16.74185 2.402 0 4.004 2.35349 5.399 5.5093l.847-2.03255c-1.647-3.58373-3.386-5.9907-6.223-5.9907-4.622 0-8.008 8.77209-8.008 19.3628v.107c0 10.7511 3.363 19.2558 7.962 19.2558z"/><path d="m727.069 38.0837 9.632-37.441841h-1.35l-5.559 22.090741-6.269-22.090741h-1.396l7.024 24.444141-3.409 12.9977z"/><path d="m743.664.374417h-1.075l-7.276 37.709283h1.259l6.543-34.28603 6.521 34.28603h1.327z"/><path d="m754.359 38.0837h5.514c3.295 0 6.246-3.9581 6.246-11.8209v-.107c0-7.1139-2.448-11.3395-5.949-11.3395h-4.621v-14.174441h-1.19zm1.19-2.5674v-18.1326h4.53c2.86 0 4.85 3.0489 4.85 8.9326v.107c0 5.5093-2.036 9.093-4.987 9.093z"/><path d="m772.022 38.0837h1.19v-34.8744h5.582v-2.567441h-12.354v2.567441h5.582z"/><path d="m795.603 38.0837v-37.441841h-1.121l-11.005 32.574441v-32.574441h-1.189v37.441841h.892l11.234-33.26975v33.26975z"/><path d="m800.363 38.0837h1.19v-13.9604h4.324c3.363 0 6.246-4.0117 6.246-11.928v-.1069c0-7.22096-2.425-11.446541-5.949-11.446541h-5.811zm1.19-16.5279v-18.3465h4.53c2.86 0 4.85 3.10233 4.85 9.0395v.107c0 5.6163-2.013 9.2-4.988 9.2z"/><path d="m822.967 38.7256c4.85 0 8.076-9.093 8.076-19.3628v-.107c0-10.21627-3.18-19.2558-8.03-19.2558-4.851 0-8.077 9.09302-8.077 19.3628v.107c0 10.2162 3.18 19.2558 8.031 19.2558zm.046-2.514c-3.959 0-6.841-7.5953-6.841-16.8488v-.107c0-9.2535 2.837-16.74185 6.795-16.74185s6.841 7.59535 6.841 16.84885v.107c0 9.2535-2.837 16.7418-6.795 16.7418z"/><path d="m835.084 38.0837h6.955c3.455 0 5.742-3.9581 5.742-10.2163v-.1069c0-5.1349-1.693-7.7559-3.614-8.9326 1.304-1.2837 2.722-3.7442 2.722-8.87906v-.10698c0-2.3-.343-4.27907-1.029-5.88372-.893-2.08605-2.334-3.316281-4.164-3.316281h-6.612zm10.593-27.8674c0 4.9744-1.739 7.7023-4.119 7.7023h-5.285v-14.7093h5.4c2.585 0 4.004 2.7814 4.004 6.9zm.892 17.6511c0 4.707-1.739 7.6489-4.484 7.6489h-5.812v-15.0303h5.423c3.18 0 4.873 2.621 4.873 7.2745z"/><path d="m849.887 38.0837h1.236l2.036-10.4837h9.449l2.036 10.4837h1.304l-7.458-37.709283h-1.144zm3.775-12.9977 4.233-21.66274 4.209 21.66274z"/><path d="m871.716 38.0837h1.189v-34.8744h5.583v-2.567441h-12.355v2.567441h5.583z"/><path d="m881.981 38.0837h5.514c3.295 0 6.246-3.9581 6.246-11.8209v-.107c0-7.1139-2.448-11.3395-5.949-11.3395h-4.621v-14.174441h-1.19zm1.19-2.5674v-18.1326h4.53c2.86 0 4.85 3.0489 4.85 8.9326v.107c0 5.5093-2.036 9.093-4.987 9.093z"/><path d="m904.516 38.7256c2.837 0 4.645-2.6744 6.361-6.5256l-.801-1.8186c-1.625 3.7977-3.203 5.8302-5.514 5.8302-3.821 0-6.772-7.4349-6.772-16.8488v-.107c0-9.41394 2.905-16.74185 6.749-16.74185 2.402 0 4.004 2.35349 5.4 5.5093l.846-2.03255c-1.647-3.58373-3.386-5.9907-6.223-5.9907-4.622 0-8.008 8.77209-8.008 19.3628v.107c0 10.7511 3.364 19.2558 7.962 19.2558z"/><path d="m926.049.641859h-6.635c-3.592 0-5.811 4.439531-5.811 10.644141v.107c0 6.3651 2.059 10.2698 4.827 10.9651l-5.422 15.7256h1.51l5.285-15.5116h5.056v15.5116h1.19zm-1.19 2.567441v16.8488h-5.124c-2.815 0-4.942-2.7814-4.942-8.5581v-.107c0-4.92091 1.67-8.1837 4.576-8.1837z"/><path d="m944.912 38.7256c2.837 0 4.644-2.6744 6.36-6.5256l-.8-1.8186c-1.625 3.7977-3.203 5.8302-5.514 5.8302-3.821 0-6.772-7.4349-6.772-16.8488v-.107c0-9.41394 2.905-16.74185 6.749-16.74185 2.402 0 4.004 2.35349 5.399 5.5093l.847-2.03255c-1.647-3.58373-3.386-5.9907-6.223-5.9907-4.622 0-8.008 8.77209-8.008 19.3628v.107c0 10.7511 3.363 19.2558 7.962 19.2558z"/><path d="m961.537 38.7256c4.85 0 8.076-9.093 8.076-19.3628v-.107c0-10.21627-3.18-19.2558-8.031-19.2558-4.85 0-8.076 9.09302-8.076 19.3628v.107c0 10.2162 3.18 19.2558 8.031 19.2558zm.045-2.514c-3.958 0-6.84-7.5953-6.84-16.8488v-.107c0-9.2535 2.837-16.74185 6.795-16.74185s6.84 7.59535 6.84 16.84885v.107c0 9.2535-2.837 16.7418-6.795 16.7418z"/><path d="m987.766 38.7256c2.836 0 4.644-2.6744 6.36-6.5256l-.801-1.8186c-1.624 3.7977-3.203 5.8302-5.514 5.8302-3.821 0-6.772-7.4349-6.772-16.8488v-.107c0-9.41394 2.906-16.74185 6.749-16.74185 2.403 0 4.004 2.35349 5.4 5.5093l.846-2.03255c-1.647-3.58373-3.386-5.9907-6.223-5.9907-4.621 0-8.007 8.77209-8.007 19.3628v.107c0 10.7511 3.363 19.2558 7.962 19.2558z"/><path d="m997.516 38.0837h1.189v-34.8744h10.255v34.8744h1.18v-37.441841h-12.624z"/><path d="m1014.9 38.0837h11.51v-2.5674h-10.32v-15.0303h9.17v-2.5674h-9.17v-14.7093h10.2v-2.567441h-11.39z"/><path d="m1043.18 46h1.16v-10.4837h-1.49v-34.874441h-1.18v34.874441h-10.25v-34.874441h-1.19v37.441841h12.95z"/><path d="m1061.1 38.0837v-37.441841h-1.12l-11 32.574441v-32.574441h-1.19v37.441841h.89l11.23-33.26975v33.26975z"/><path d="m1064.49 38.0837h1.23l2.04-10.4837h9.45l2.04 10.4837h1.3l-7.46-37.709283h-1.14zm3.77-12.9977 4.24-21.66274 4.21 21.66274z"/><path d="m1090.47.374417h-1.08l-7.27 37.709283h1.26l6.54-34.28603 6.52 34.28603h1.33z"/><path d="m1114.48 38.0837v-37.441841h-1.12l-11.01 32.574441v-32.574441h-1.19v37.441841h.9l11.23-33.26975v33.26975z"/><path d="m1126.49 38.7256c2.84 0 4.65-2.6744 6.36-6.5256l-.8-1.8186c-1.62 3.7977-3.2 5.8302-5.51 5.8302-3.82 0-6.77-7.4349-6.77-16.8488v-.107c0-9.41394 2.9-16.74185 6.74-16.74185 2.41 0 4.01 2.35349 5.4 5.5093l.85-2.03255c-1.65-3.58373-3.39-5.9907-6.22-5.9907-4.62 0-8.01 8.77209-8.01 19.3628v.107c0 10.7511 3.36 19.2558 7.96 19.2558z"/><path d="m1140.57 38.0837h1.19v-34.8744h5.58v-2.567441h-12.36v2.567441h5.59z"/><path d="m1157.01 38.7256c4.85 0 8.08-9.093 8.08-19.3628v-.107c0-10.21627-3.18-19.2558-8.03-19.2558s-8.08 9.09302-8.08 19.3628v.107c0 10.2162 3.18 19.2558 8.03 19.2558zm.05-2.514c-3.96 0-6.84-7.5953-6.84-16.8488v-.107c0-9.2535 2.84-16.74185 6.79-16.74185 3.96 0 6.84 7.59535 6.84 16.84885v.107c0 9.2535-2.83 16.7418-6.79 16.7418z"/><path d="m1169.13 38.0837h1.14v-32.52091l6.34 21.55581h.09l6.34-21.55581v32.52091h1.19v-37.441841h-1.12l-6.43 22.144141-6.43-22.144141h-1.12z"/><path d="m1188.49 38.0837h1.51v-4.5465h-1.51z"/></g></svg>